<?xml version="1.0" encoding="UTF-8"?>
<svg width="559px" height="559px" viewBox="0 0 559 559" version="1.1" xmlns="http://www.w3.org/2000/svg" xmlns:xlink="http://www.w3.org/1999/xlink">
    <title>icon</title>
    <defs>
        <rect id="path-1" x="0" y="0" width="559" height="559"></rect>
        <linearGradient x1="19.7887401%" y1="84.4814412%" x2="114.6876%" y2="34.8585519%" id="linearGradient-3">
            <stop stop-color="#FF4E00" offset="0%"></stop>
            <stop stop-color="#FF3A00" offset="100%"></stop>
        </linearGradient>
    </defs>
    <g id="Page-1" stroke="none" stroke-width="1" fill="none" fill-rule="evenodd">
        <g id="icon">
            <mask id="mask-2" fill="white">
                <use xlink:href="#path-1"></use>
            </mask>
            <g id="Rectangle"></g>
            <g id="icon.svg" mask="url(#mask-2)">
                <g transform="translate(3, 3)">
                    <rect id="Rettangolo_1" fill="url(#linearGradient-3)" fill-rule="nonzero" x="0" y="0" width="550.603" height="550.603" rx="78"></rect>
                    <g id="Raggruppa_2" stroke-width="1" fill="none" fill-rule="evenodd" transform="translate(88.614, 68.323)">
                        <g id="Raggruppa_1" transform="translate(0, -0)" fill="#FFFFFF" fill-rule="nonzero">
                            <path d="M24.189,110.609 C37.3746296,91.8448131 46.2156545,70.3795111 50.07,47.772 C51.3146667,40.3946667 52.838,33.097 54.64,25.879 C47.7106667,28.6396667 40.8466667,31.621 34.048,34.823 C31.618,43.7663333 29.5673333,52.8243333 27.896,61.997 C27.0030609,66.9439783 22.693917,70.5403378 17.667,70.534 C17.0791004,70.5921363 16.4868996,70.5921363 15.899,70.534 L15.851,70.526 C13.1558776,70.0736575 10.7509947,68.5687993 9.16578897,66.3427218 C7.58058322,64.1166443 6.94501306,61.3518459 7.399,58.657 C8.078,54.933 8.836,51.229 9.634,47.538 C3.3760346,51.9028084 -0.197233975,59.1792963 0.175,66.8 C0.045,67.537 0.045,72.386 0.045,80.916 C-0.042,80.916 0.109,85.226 -1.42108547e-14,85.205 C0.087,86.642 0.161,88.08 0.24,89.517 C3.05463104,88.924229 5.98427054,89.687372 8.152,91.578 L8.206,91.625 C12.0214986,95.0037103 12.376496,100.835426 8.999,104.652 C6.61433333,107.410667 4.12033333,110.044 1.517,112.552 C1.798,117.118 2.106,121.68 2.512,126.234 C2.73866667,129.274 2.996,132.310333 3.284,135.343 C11.0292747,127.787693 18.0298458,119.504884 24.189,110.609 L24.189,110.609 Z" id="Tracciato_1"></path>
                            <path d="M305.105,122.645 C313.921222,88.8404673 343.120193,64.2864862 377.936,61.4 C376.572011,54.4914222 372.006482,48.641978 365.636,45.641 C354.856,39.683 343.866333,34.3093333 332.667,29.52 C304.910002,35.9653994 283.610585,58.2460361 278.421,86.265 C265.702427,157.477169 233.625194,223.813686 185.705,278.004 C181.881378,282.259276 175.360915,282.68628 171.015,278.966 L170.963,278.919 C168.915936,277.123245 167.666197,274.587755 167.488782,271.870452 C167.311366,269.15315 168.220812,266.476685 170.017,264.43 C215.486332,213.094303 245.90574,150.205564 257.925,82.69 C262.916243,55.5077101 279.83359,31.9960626 304.021,18.626 C290.1295,13.9966012 275.973561,10.2021605 261.629,7.263 C242.082838,25.6385166 229.039188,49.8695581 224.464,76.304 C222.034894,90.8600238 218.630561,105.236399 214.274,119.336 L214.264,119.373 C212.631368,124.892077 206.834687,128.043566 201.315,126.413 L201.245,126.392 C198.641015,125.595157 196.460266,123.796451 195.182558,121.391631 C193.904851,118.98681 193.634864,116.172896 194.432,113.569 C198.519399,100.33801 201.717862,86.8486112 204.006,73.191 C208.440469,47.2458614 219.89031,23.008884 237.115,3.106 C224.94117,1.45882317 212.692503,0.422192173 200.415,0 C186.653107,20.5092318 177.381484,43.6956166 173.208,68.039 C166.468953,108.200912 150.905142,146.367941 127.638,179.79 C103.4386,214.863402 71.9459055,244.293355 35.316,266.065 C35.733,267.087 36.132,268.114 36.555,269.134 C39.9269211,277.762084 43.7406312,286.210924 47.981,294.447 C89.9356938,270.256399 125.953304,236.994631 153.4,197.094 C160.366067,186.906426 166.784171,176.354791 172.627,165.484 C175.329181,160.436965 181.596499,158.514398 186.664,161.178 L186.817,161.256 C189.234366,162.51002 191.05442,164.673149 191.87662,167.269341 C192.698819,169.865533 192.455784,172.682031 191.201,175.099 C184.979599,186.627186 178.136171,197.80868 170.701,208.594 C141.388386,251.161936 102.865739,286.582168 57.992,312.226 C63.988138,321.989791 70.5977495,331.363288 77.781,340.29 C92.6895583,331.611353 106.981502,321.914322 120.555,311.268 C125.030984,307.684345 131.560914,308.388496 135.17,312.844 L135.321,313.03 C138.848197,317.470243 138.108619,323.929018 133.669,327.457 C120.289454,337.92843 106.249396,347.527296 91.636,356.194 C99.4512787,364.492708 107.782861,372.28956 116.581,379.538 C209.74538,320.933657 277.140674,229.097183 305.105,122.645 Z" id="Tracciato_2"></path>
                            <path d="M189.259,421.476 C189.74,421.513 190.221,421.554 190.701,421.554 L190.701,421.298 C192.379588,421.038359 194.013699,420.545601 195.556,419.834 C262.651183,391.350477 315.432071,337.023412 341.967,269.134 C358.14517,230.095595 368.906937,189.027542 373.953,147.072 C343.776331,257.039567 277.123708,353.487261 184.928,420.595 C185.871448,420.902696 186.837346,421.136732 187.817,421.295 L187.817,421.551 C188.298,421.554 188.778,421.512 189.259,421.476 Z" id="Tracciato_3"></path>
                            <path d="M110.444,168.253 C132.009074,137.260346 146.453911,101.882448 152.744,64.653 C156.638066,41.9297467 164.511456,20.0719307 176.002,0.085 C163.714669,0.573387512 151.459589,1.67811025 139.283,3.395 C131.092931,21.3024526 125.277066,40.2030045 121.983,59.617 C116.424292,92.4613751 103.630796,123.65846 84.529,150.949 C66.8159818,176.676063 44.2886505,198.729674 18.191,215.892 C21.0576667,226.204667 24.2876667,236.413 27.881,246.517 C60.5574284,226.470432 88.6803865,199.811818 110.444,168.253 L110.444,168.253 Z" id="Tracciato_4"></path>
                            <path d="M355.519,135.143 C358.328414,124.684029 366.481989,116.504561 376.932,113.662 C377.532,104.185 377.946,94.689 378.516,85.204 C378.444,85.218 378.487,83.339 378.499,82.065 C353.002341,84.6937774 331.806551,102.854028 325.299,127.646 C296.575307,236.685012 228.284391,331.124298 133.733,392.562 C143.114515,399.116567 152.902517,405.069195 163.038,410.384 C258.132652,344.691424 326.446024,247.005726 355.519,135.143 L355.519,135.143 Z" id="Tracciato_5"></path>
                            <path d="M67.298,139.412 C84.6750914,114.551141 96.3124057,86.1404648 101.369,56.233 C104.181964,39.6374392 108.6861,23.3733611 114.811,7.695 C102.58892,10.27201 90.5065014,13.4718484 78.611,17.282 C75.2294,28.3931322 72.5557031,39.7074963 70.606,51.157 C66.2613678,76.6849907 56.3053325,100.930584 41.456,122.145 C31.5644547,136.440449 19.7564642,149.309688 6.363,160.392 C8.08433333,171.87 10.235,183.265667 12.815,194.579 C34.0812625,179.539861 52.5253398,160.864229 67.298,139.412 Z" id="Tracciato_6"></path>
                        </g>
                    </g>
                </g>
            </g>
        </g>
    </g>
</svg>